<svg width="46" height="44" viewBox="0 0 46 44" fill="none" xmlns="http://www.w3.org/2000/svg">
<ellipse cx="23" cy="22" rx="23" ry="22" fill="#FF67FF"/>
<path d="M16.6 33.288C15.384 33.288 14.368 33.072 13.552 32.64C12.736 32.208 12.12 31.544 11.704 30.648C11.288 29.736 11.056 28.56 11.008 27.12L14.68 26.568C14.696 27.4 14.768 28.072 14.896 28.584C15.04 29.096 15.232 29.464 15.472 29.688C15.728 29.912 16.032 30.024 16.384 30.024C16.832 30.024 17.12 29.872 17.248 29.568C17.392 29.264 17.464 28.944 17.464 28.608C17.464 27.808 17.272 27.136 16.888 26.592C16.504 26.032 15.984 25.472 15.328 24.912L13.648 23.448C12.912 22.824 12.288 22.12 11.776 21.336C11.28 20.536 11.032 19.552 11.032 18.384C11.032 16.736 11.52 15.48 12.496 14.616C13.472 13.736 14.8 13.296 16.48 13.296C17.52 13.296 18.352 13.472 18.976 13.824C19.616 14.176 20.096 14.64 20.416 15.216C20.752 15.776 20.976 16.376 21.088 17.016C21.216 17.64 21.288 18.24 21.304 18.816L17.608 19.272C17.592 18.696 17.552 18.2 17.488 17.784C17.44 17.352 17.328 17.024 17.152 16.8C16.976 16.56 16.704 16.44 16.336 16.44C15.936 16.44 15.64 16.608 15.448 16.944C15.272 17.28 15.184 17.616 15.184 17.952C15.184 18.672 15.352 19.264 15.688 19.728C16.04 20.176 16.496 20.648 17.056 21.144L18.664 22.56C19.512 23.28 20.224 24.096 20.8 25.008C21.392 25.92 21.688 27.048 21.688 28.392C21.688 29.304 21.48 30.136 21.064 30.888C20.648 31.624 20.056 32.208 19.288 32.64C18.536 33.072 17.64 33.288 16.6 33.288ZM28.5531 33.288C27.3371 33.288 26.3211 33.072 25.5051 32.64C24.6891 32.208 24.0731 31.544 23.6571 30.648C23.2411 29.736 23.0091 28.56 22.9611 27.12L26.6331 26.568C26.6491 27.4 26.7211 28.072 26.8491 28.584C26.9931 29.096 27.1851 29.464 27.4251 29.688C27.6811 29.912 27.9851 30.024 28.3371 30.024C28.7851 30.024 29.0731 29.872 29.2011 29.568C29.3451 29.264 29.4171 28.944 29.4171 28.608C29.4171 27.808 29.2251 27.136 28.8411 26.592C28.4571 26.032 27.9371 25.472 27.2811 24.912L25.6011 23.448C24.8651 22.824 24.2411 22.12 23.7291 21.336C23.2331 20.536 22.9851 19.552 22.9851 18.384C22.9851 16.736 23.4731 15.48 24.4491 14.616C25.4251 13.736 26.7531 13.296 28.4331 13.296C29.4731 13.296 30.3051 13.472 30.9291 13.824C31.5691 14.176 32.0491 14.64 32.3691 15.216C32.7051 15.776 32.9291 16.376 33.0411 17.016C33.1691 17.64 33.2411 18.24 33.2571 18.816L29.5611 19.272C29.5451 18.696 29.5051 18.2 29.4411 17.784C29.3931 17.352 29.2811 17.024 29.1051 16.8C28.9291 16.56 28.6571 16.44 28.2891 16.44C27.8891 16.44 27.5931 16.608 27.4011 16.944C27.2251 17.28 27.1371 17.616 27.1371 17.952C27.1371 18.672 27.3051 19.264 27.6411 19.728C27.9931 20.176 28.4491 20.648 29.0091 21.144L30.6171 22.56C31.4651 23.28 32.1771 24.096 32.7531 25.008C33.3451 25.92 33.6411 27.048 33.6411 28.392C33.6411 29.304 33.4331 30.136 33.0171 30.888C32.6011 31.624 32.0091 32.208 31.2411 32.64C30.4891 33.072 29.5931 33.288 28.5531 33.288Z" fill="#F5F5F5"/>
</svg>
